<svg aria-hidden="true" style="width:0;height:0;position:absolute;overflow:hidden" xmlns="http://www.w3.org/2000/svg"><defs><symbol id="icon-check" viewBox="0 0 32 32"><path stroke-linejoin="round" stroke-linecap="round" stroke-width="3.556" d="M26.667 8 12 22.667 5.333 16"/></symbol><symbol id="icon-discount" viewBox="0 0 35 32"><path d="m33.162 22.946-.333.901-6.134-2.26.333-.901.506.186.006-.017c-.215-.342-.391-.894-.141-1.572.415-1.123 1.597-1.633 3.038-1.102s2.009 1.685 1.594 2.809c-.25.678-.726.989-1.146 1.098l-.006.017 2.282.841zM28.08 19.71c-.272.738.169 1.417 1.138 1.774.978.36 1.746.127 2.019-.611.291-.789-.274-1.475-1.132-1.791s-1.734-.161-2.025.628zM30.514 25.327c.157-.214.467-.327.732-.133s.244.518.087.732c-.168.229-.465.34-.73.146s-.257-.516-.089-.744zm-.354-.847-.568.774-3.772-2.757.568-.774 3.772 2.757zM25.85 26.432c-.792.391-1.634.836-2.345-.024-.571-.691-.333-1.609.542-2.329 1.165-.959 2.114-.829 2.779-.097l-.72.593c-.356-.359-.799-.55-1.561.077-.515.424-.524.858-.338 1.084.373.451.833.132 1.467-.177.682-.337 1.552-.863 2.228-.046.489.592.357 1.494-.546 2.238-.981.808-1.884.663-2.452.076l.72-.593c.282.241.662.414 1.241-.063.445-.366.545-.733.335-.986-.303-.366-.729-.063-1.35.247zM20.881 29.089c.188.438.66.886 1.439.622.892-.303 1.013-1.194.729-2.024s-.916-1.466-1.816-1.16c-.779.265-.882.898-.748 1.403l-.909.309c-.279-1.044.251-2.065 1.403-2.456 1.325-.45 2.507.211 2.979 1.595s-.059 2.627-1.375 3.074c-1.151.391-2.156-.089-2.611-1.054l.909-.309zM16.961 26.35c1.46.089 2.284 1.156 2.196 2.607s-1.035 2.41-2.495 2.321c-1.46-.089-2.284-1.156-2.196-2.607s1.035-2.41 2.495-2.321zm-.047.785c-.913-.056-1.431.636-1.489 1.594-.059.967.373 1.708 1.285 1.764s1.43-.627 1.489-1.594c.058-.958-.372-1.708-1.285-1.764zM10.053 29.25l-.864-.419 2.044-4.201.864.419-.264.543.016.008c.382-.221.978-.338 1.702.013.781.379 1.178 1.131.71 2.093l-1.412 2.902-.872-.423 1.292-2.656c.276-.567.213-1.045-.379-1.332-.666-.323-1.29-.128-1.594.497l-1.244 2.557zM5.857 25.938c-.58-.647-.662-1.492.136-2.205l2.408-2.149.647.722-2.203 1.967c-.471.42-.594.886-.154 1.376.494.552 1.146.607 1.664.144l2.121-1.894.641.715-3.485 3.111-.641-.715.45-.402-.012-.014c-.438.06-1.034-.058-1.571-.657zM3.877 20.823l.362.8 2.309-1.04c.484-.218.436-.477.147-1.029l.717-.323c.121.156.233.337.338.57.317.7.173 1.226-.727 1.631l-2.384 1.073.279.616-.717.323-.279-.616-1.342.604-.399-.883 1.342-.604-.362-.8.717-.323zM1.086 11.211l.209-.937 6.381 1.419-.209.937-.527-.117-.004.018c.259.31.507.834.35 1.539-.26 1.169-1.363 1.832-2.863 1.499s-2.217-1.402-1.957-2.571c.157-.705.587-1.078.988-1.241l.004-.018-2.374-.528zm5.47 2.528c.171-.768-.357-1.381-1.366-1.606-1.017-.226-1.747.108-1.918.875-.183.821.47 1.425 1.362 1.624s1.74-.072 1.922-.893zM3.385 8.497c-.127.233-.418.387-.708.23s-.311-.481-.184-.714c.135-.249.415-.399.704-.242s.323.477.188.726zm.464.793.459-.843 4.107 2.227-.459.843L3.849 9.29zM7.868 6.763c.734-.492 1.51-1.043 2.327-.283.656.61.541 1.551-.232 2.38-1.029 1.103-1.987 1.098-2.742.46l.636-.682c.399.309.864.441 1.538-.281.455-.488.407-.919.193-1.119-.429-.398-.842-.022-1.431.368-.632.423-1.426 1.059-2.202.337-.563-.523-.55-1.435.249-2.29.867-.929 1.781-.904 2.42-.396l-.636.682c-.312-.202-.711-.324-1.222.225-.393.421-.444.798-.203 1.022.348.324.731-.032 1.306-.421z"/><path d="M12.376 3.5c-.246-.409-.774-.789-1.51-.421-.842.421-.842 1.32-.448 2.104s1.106 1.328 1.957.903c.736-.368.752-1.009.551-1.491l.859-.429c.418.997.031 2.08-1.057 2.623-1.252.625-2.512.131-3.168-1.177s-.297-2.611.946-3.232c1.088-.543 2.148-.204 2.73.691l-.859.429zM16.627 5.665c-1.459.106-2.418-.841-2.525-2.291S14.805.848 16.264.741c1.459-.106 2.418.841 2.525 2.291s-.703 2.526-2.162 2.633zm-.058-.784c.912-.066 1.333-.821 1.262-1.779-.071-.967-.598-1.643-1.51-1.577s-1.334.812-1.262 1.779c.071.957.598 1.643 1.51 1.577zM23.123 1.865l.912.301-1.466 4.436-.912-.301.189-.573-.017-.006c-.349.27-.924.465-1.688.213-.825-.272-1.318-.964-.982-1.98L20.172.891l.92.304-.927 2.804c-.198.599-.073 1.064.553 1.27.703.232 1.295-.044 1.514-.704l.892-2.7zM27.728 4.578c.66.565.852 1.393.155 2.204l-2.104 2.447-.736-.631 1.926-2.239c.411-.478.472-.956-.027-1.384-.562-.482-1.215-.452-1.669.075l-1.854 2.156-.729-.625 3.046-3.542.729.625-.393.458.014.012c.426-.117 1.032-.079 1.643.445zM30.358 9.346l-.466-.744-2.149 1.341c-.45.281-.368.531-.007 1.039l-.667.416a2.79 2.79 0 0 1-.412-.519c-.408-.651-.336-1.191.501-1.714l2.218-1.384-.359-.573.667-.416.359.573 1.249-.779.515.821-1.249.779.466.744-.667.416zM19.746 14.222c-4 .889-4.933 3.631-5.858 5.929l.84.293.422-1.022c.213.076.435.133.595.133 4.889 0 6.222-7.556 6.222-7.556-.444.889-3.556 1-5.778 1.444s-3.111 2.333-3.111 3.222.778 1.667.778 1.667c1.444-4.111 5.889-4.111 5.889-4.111z"/></symbol><symbol id="icon-facebook" viewBox="0 0 32 32"><path d="M19.52 4.64h.96v3.6h-1.2c-.48 0-.96 0-1.2.24s-.24.48-.24 1.04v1.28h2.64v3.04h-2.64v13.2h-4.08V13.76H11.6v-3.04h2.16V9.68c0-1.76.24-3.04.72-3.6.72-1.04 2.16-1.52 4.32-1.52.24.08.48.08.72.08z"/></symbol><symbol id="icon-instagram" viewBox="0 0 32 32"><path d="M28.718 10.756a9.264 9.264 0 0 0-.596-3.145 6.547 6.547 0 0 0-3.743-3.737 9.42 9.42 0 0 0-3.108-.596c-1.368-.061-1.801-.078-5.273-.078s-3.916 0-5.274.078a9.413 9.413 0 0 0-3.106.596 6.541 6.541 0 0 0-3.743 3.737 9.288 9.288 0 0 0-.596 3.101c-.061 1.367-.08 1.8-.08 5.265s0 3.909.08 5.265a9.335 9.335 0 0 0 .596 3.104 6.548 6.548 0 0 0 3.744 3.735 9.37 9.37 0 0 0 3.106.639c1.369.061 1.803.08 5.274.08s3.916 0 5.274-.08a9.362 9.362 0 0 0 3.108-.595 6.555 6.555 0 0 0 3.743-3.737 9.35 9.35 0 0 0 .596-3.104c.061-1.365.08-1.798.08-5.265-.003-3.466-.003-3.906-.082-5.264zM15.99 22.531c-3.631 0-6.572-2.936-6.572-6.561s2.941-6.561 6.572-6.561c3.628 0 6.572 2.936 6.572 6.561s-2.944 6.561-6.572 6.561zm6.834-11.835a1.53 1.53 0 1 1 0-3.06 1.53 1.53 0 1 1 0 3.06z"/><path d="M15.992 19.976a4.004 4.004 0 1 0 0-8.009 4.004 4.004 0 0 0 0 8.009z"/></symbol><symbol id="icon-logo" viewBox="0 0 32 32"><path d="M17.488 4.624a5.36 5.36 0 0 0-1.817-1.707c-2.011-1.153-4.601-.951-6.992.388C4.24 5.792 1.334 10.466 1.334 16c0 7.387 5.347 13.351 12.329 14.48a14.67 14.67 0 0 0 2.337.187 14.625 14.625 0 0 0 10.426-4.32 14.605 14.605 0 0 0 4.24-10.459c-.031-2.576-1.064-5.737-2.697-8.264-1.627-2.517-4.128-4.811-7.236-4.781-1.517.003-2.553.837-3.245 1.784v-.001zm8.873 5.527a6.332 6.332 0 0 0-1.684-.044l-1.547-2.6-2.291 1.36 1.189 2a9.055 9.055 0 0 0-1.42.833 7.286 7.286 0 0 0-.024-.077c-.356-1.08-1.044-1.967-1.961-2.848l.005-.027c.092-.431.239-.987.459-1.527.497-1.221 1.075-1.716 1.653-1.716h.015c1.721-.019 3.515 1.303 4.975 3.561.227.351.437.712.632 1.083l-.001.001zm-8.214 3.996c-.44.011-.892.06-1.333.156a5.013 5.013 0 0 0-1.416-1.527c-1.053-.74-2.496-1.107-4.056-.524a18.259 18.259 0 0 0-.432-.241l4.311-4.225-1.867-1.904-5.113 5.012c-1.08-.313-2.089-.425-2.996-.3a11.607 11.607 0 0 1 4.74-4.963c1.819-1.019 3.383-.963 4.361-.401.933.535 1.708 1.748 1.513 3.916l-.06.671.504.447c1.096.969 1.552 1.596 1.749 2.195.139.42.184.928.095 1.689zm-3.747 1.34c-1.139.953-1.903 2.291-2.347 3.736L8.088 14.87l-1.972 1.797 5.451 5.984c-.007 1.589.197 3.216.493 4.687A11.933 11.933 0 0 1 4 16.001c0-1.387.385-2.143.839-2.473.428-.315 1.368-.572 3.293.139.696.257 1.501.652 2.423 1.225l.669.416.688-.387c.831-.467 1.465-.301 1.952.04.213.149.396.336.536.527zm2.353 12.489 9.723-10.716-1.975-1.792-3.909 4.308.009-1.352-2.667-.019-.031 4.333-3.311 3.649c-.251-1.361-.4-2.824-.352-4.196.085-2.34 1.02-4.263 2.403-5.024.573-.316 1.585-.44 2.385-.299l1.187.207.327-1.159c.171-.604.623-1.251 1.329-1.827a6.365 6.365 0 0 1 2.445-1.221c1.068-.261 1.979-.125 2.579.288.524.36 1.051 1.096 1.1 2.605v.024l.004.213a11.947 11.947 0 0 1-11.246 11.976z"/></symbol><symbol id="icon-organic-food" viewBox="0 0 30 32"><path d="M26.338 17.657c.128-1.003.902-1.522 1.899-1.395s1.615.825 1.487 1.828c-.128 1.003-.902 1.522-1.899 1.395s-1.615-.825-1.487-1.828zm.539.068c-.08.627.373 1.016 1.032 1.101.665.085 1.195-.179 1.276-.806s-.367-1.016-1.032-1.101c-.658-.084-1.195.179-1.276.806zM28.761 21.773a1.996 1.996 0 0 1-.115.268l-.59-.209.004-.012c.314-.566.08-1.192-.57-1.422l-1.555-.55.221-.626 3.045 1.078-.221.626-.572-.202-.004.012c.324.296.498.639.357 1.038zM27.135 24.616l-.35.564-2.556-1.587c-.789-.49-.842-1.185-.358-1.963.49-.789 1.174-.968 1.672-.74l-.353.569c-.275-.096-.578-.016-.854.429-.293.473-.229.848.265 1.154l.333.207.007-.011c-.114-.272-.161-.651.109-1.086.427-.687 1.225-.906 2.089-.369.87.54 1.022 1.349.596 2.036-.27.435-.631.561-.914.586l-.007.011.322.2zm-1.691-2.069c-.283.456-.153.917.427 1.277s1.051.273 1.334-.183c.307-.494.093-.977-.417-1.293-.505-.313-1.037-.294-1.344.2zM24.221 26.6c.161.17.384.202.705-.103.385-.366.414-.62.149-.944l.467-.444c.404.471.451 1.098-.255 1.769-.518.492-1.09.661-1.682.038l-1.058-1.113c-.157-.165-.276-.217-.447-.02l-.218-.229a.993.993 0 0 1 .232-.316c.257-.244.463-.265.726-.08l.009-.009c-.049-.346.081-.74.443-1.084.476-.453 1.031-.457 1.405-.063.488.513.26 1.035-.218 1.707-.297.413-.473.668-.26.892zm-.672-2.056c-.399.379-.486.837-.125 1.217l.335.353c.026-.129.161-.363.342-.622.316-.466.381-.746.155-.984-.205-.215-.446-.213-.707.036zM21.904 29.31c-.527.288-1.11.211-1.464-.438l-1.071-1.958.588-.321.98 1.791c.209.383.503.539.903.32.449-.246.589-.675.359-1.097l-.943-1.725.582-.318 1.55 2.834-.582.318-.2-.366-.011.006c-.028.304-.201.686-.689.953zM19.867 30.665c.174-.057.394.005.464.222s-.073.389-.247.446c-.186.06-.398.003-.468-.214s.065-.393.252-.454zm.144-.619-.631.205-.997-3.072.631-.205.997 3.072zM16.037 29.698c.067.323.324.691.889.619.646-.083.851-.67.774-1.271s-.417-1.119-1.069-1.036c-.564.072-.722.487-.701.848l-.658.084c-.044-.746.456-1.365 1.29-1.471.959-.123 1.668.488 1.796 1.491s-.404 1.772-1.357 1.894c-.834.107-1.447-.357-1.622-1.073l.658-.084zM9.633 30.68c.405.146.575.153.684-.197l.105-.338-.567-.177.162-.519.567.177.8-2.564.64.2-.8 2.564.441.137-.162.519-.441-.137-.122.392c-.203.652-.553.794-1.059.636a2.296 2.296 0 0 1-.409-.174l.162-.519zM9.585 26.16c.886.488 1.084 1.399.598 2.279s-1.361 1.198-2.247.71c-.886-.489-1.084-1.399-.598-2.279s1.361-1.198 2.247-.71zm-.263.476c-.553-.305-1.082-.027-1.403.554-.324.587-.274 1.177.279 1.482s1.079.032 1.403-.554c.321-.581.274-1.177-.28-1.482z"/><path d="M7.236 24.438c.733.697.694 1.628.002 2.356s-1.62.815-2.353.118-.694-1.628-.002-2.356c.692-.729 1.62-.815 2.353-.118zm-.374.394c-.458-.435-1.04-.3-1.498.181-.462.486-.563 1.069-.105 1.505s1.036.304 1.498-.181c.457-.481.563-1.07.105-1.505z"/><path d="M1.042 23.887.7 23.318l3.874-2.327.342.569-.32.192.007.011c.278.032.652.176.909.604.426.71.189 1.567-.721 2.114s-1.779.353-2.205-.357c-.257-.428-.219-.819-.096-1.093l-.006-.011-1.441.866zm3.945-1.337c-.28-.466-.837-.522-1.449-.154-.618.371-.825.886-.545 1.352.299.498.914.491 1.456.165s.838-.864.538-1.363zM3.714 16.661c.039 1.011-.638 1.65-1.643 1.689S.342 17.803.303 16.793c-.039-1.011.638-1.65 1.643-1.689s1.729.547 1.768 1.557zm-.543.021c-.024-.632-.536-.941-1.199-.915-.67.026-1.149.373-1.125 1.005s.53.941 1.199.915c.663-.026 1.149-.373 1.125-1.005zM.652 12.938c.02-.112.041-.192.07-.283l.616.11-.002.012c-.218.61.115 1.189.793 1.311l1.624.29-.117.653-3.18-.569.117-.653.597.107.002-.012c-.368-.239-.595-.55-.521-.966zM1.786 9.883l.254-.613 2.78 1.151c.858.356 1.023 1.033.672 1.879-.356.858-1.001 1.145-1.53 1.001l.256-.619c.287.05.573-.078.773-.562.213-.514.088-.873-.449-1.096l-.362-.15-.005.012c.157.25.265.616.069 1.089-.31.748-1.062 1.093-2.002.703-.946-.392-1.228-1.165-.918-1.913.196-.473.532-.656.807-.726l.005-.012-.35-.145zM3.79 11.65c.206-.496.002-.93-.629-1.191s-1.081-.099-1.287.398c-.223.537.067.979.622 1.208.549.227 1.071.122 1.294-.415zM4.34 7.447c-.186-.142-.411-.138-.679.214-.322.422-.31.678.003.956l-.391.513c-.474-.4-.62-1.012-.03-1.787.433-.568.971-.826 1.655-.305l1.222.931c.181.138.307.17.444-.051l.251.191a1.02 1.02 0 0 1-.178.349c-.214.282-.415.336-.704.195l-.008.01c.104.333.038.744-.265 1.141-.398.523-.945.615-1.378.286-.563-.429-.421-.98-.057-1.72.227-.455.361-.734.114-.922zm.991 1.923c.333-.438.347-.904-.071-1.222l-.387-.295c-.005.131-.101.384-.239.668-.238.51-.257.797.004.996.236.18.474.139.693-.148zM6.149 4.422c.472-.371 1.06-.39 1.517.192l1.378 1.755-.527.414-1.26-1.606c-.269-.343-.585-.449-.943-.168-.403.316-.47.763-.174 1.141l1.214 1.546-.522.41-1.994-2.541.522-.41.258.328.01-.008c-.022-.304.086-.71.523-1.053zM7.968 2.728c-.163.084-.389.059-.494-.143s.008-.396.171-.48c.174-.09.392-.068.497.134s0 .399-.174.489zm-.042.633.589-.305 1.486 2.868-.589.305-1.486-2.868zM11.907 3.051c-.119-.308-.433-.629-.978-.466-.624.187-.73.8-.556 1.381s.594 1.036 1.224.847c.545-.163.632-.599.553-.951l.636-.191c.166.729-.227 1.421-1.033 1.662-.926.278-1.725-.209-2.016-1.178s.11-1.814 1.03-2.09c.805-.241 1.486.115 1.776.794l-.636.191zM18.039 1.036c-.423-.078-.592-.057-.643.306l-.049.351.588.082-.075.538-.588-.082-.371 2.661-.664-.093.371-2.661-.457-.064.075-.538.457.064.057-.407c.094-.676.416-.874.941-.8.163.023.304.062.432.105l-.075.538zM18.835 5.482c-.953-.337-1.297-1.203-.962-2.151s1.147-1.404 2.101-1.067c.953.337 1.297 1.203.962 2.151s-1.147 1.404-2.101 1.067zm.181-.512c.596.211 1.072-.15 1.294-.776.224-.632.078-1.206-.518-1.417s-1.07.144-1.294.776c-.221.626-.078 1.206.518 1.417z"/><path d="M21.395 6.767c-.837-.568-.951-1.493-.386-2.324s1.465-1.068 2.302-.501c.837.568.951 1.493.386 2.324s-1.465 1.068-2.302.501zm.305-.45c.523.355 1.075.126 1.448-.423.376-.554.381-1.147-.142-1.502s-1.072-.131-1.448.423c-.373.549-.381 1.147.142 1.502zM27.663 6.358l.428.507-3.451 2.918-.428-.507.285-.241-.008-.01a1.213 1.213 0 0 1-.994-.451c-.535-.632-.438-1.517.373-2.202s1.699-.634 2.234-.001c.322.381.348.774.27 1.063l.008.01 1.284-1.085zm-3.68 1.953c.351.415.91.381 1.455-.08.55-.465.672-1.007.321-1.422-.375-.444-.981-.338-1.464.07s-.688.987-.313 1.432zM16.988 14.617c-3.556.79-4.385 3.228-5.207 5.27l.747.261.375-.909c.19.067.387.119.529.119 4.346 0 5.531-6.716 5.531-6.716-.395.79-3.16.889-5.136 1.284S11.062 16 11.062 16.79s.691 1.481.691 1.481c1.284-3.654 5.235-3.654 5.235-3.654z"/></symbol><symbol id="icon-shopping-cart" viewBox="0 0 32 32"><path d="M4.8 1.6a1.6 1.6 0 0 0 0 3.2h1.952l.488 1.955.016.067 2.173 8.688L8 16.937c-2.016 2.016-.589 5.462 2.262 5.462h13.737a1.6 1.6 0 0 0 0-3.2H10.261l1.6-1.6h10.537a1.602 1.602 0 0 0 1.431-.885l4.8-9.6c.122-.244.18-.515.167-.787s-.094-.537-.237-.769a1.597 1.597 0 0 0-1.36-.759H10.047L9.551 2.81a1.601 1.601 0 0 0-1.552-1.212h-3.2zm20.8 24.8a2.4 2.4 0 1 1-4.799 0 2.4 2.4 0 0 1 4.799 0zm-15.2 2.4a2.401 2.401 0 1 0-.001-4.802A2.401 2.401 0 0 0 10.4 28.8z"/></symbol><symbol id="icon-youtube" viewBox="0 0 32 32"><path d="M24.24 6c-1.36-.08-4.16-.16-8.4-.16h-.56c-4.08 0-6.8.08-8.16.24-1.84.16-3.12.64-3.84 1.28-.64.56-1.12 1.6-1.28 2.96-.08.88-.16 2.72-.16 5.52v.4c0 2.64.08 4.48.24 5.36.24 1.28.64 2.24 1.44 2.8.8.64 2.16 1.04 4.08 1.2 1.36.08 4.16.16 8.4.16h.56c4.08 0 6.8-.08 8.16-.24 1.84-.16 3.12-.64 3.84-1.28.64-.56 1.12-1.6 1.28-2.96.08-.88.16-2.72.16-5.52v-.4c0-2.64-.08-4.48-.24-5.36-.24-1.28-.64-2.24-1.44-2.8-.8-.64-2.16-1.04-4.08-1.2zm-3.12 9.84-8.8 5.28V10.56l8.8 5.28z"/></symbol></defs></svg>